{"title":"Serenity 2005 DVDRip Xvid BigPerm LKRG","uid":6342253,"size":1377984472,"categoryP":"video","categoryS":"movies","magnet":"?xt=urn:btih:a6cd2a209b9646d316edfa64ddf4001ce38c4a5a&amp;dn=Serenity+2005+DVDRip+Xvid+BigPerm+LKRG&amp;tr=udp%3A%2F%2Ftracker.openbittorrent.com%3A80&amp;tr=udp%3A%2F%2Fopen.demonii.com%3A1337&amp;tr=udp%3A%2F%2Ftracker.coppersurfer.tk%3A6969&amp;tr=udp%3A%2F%2Fexodus.desync.com%3A6969","seeders":0,"leechers":1,"uploader":"hiest","files":-1,"time":1303718432,"description":" ######           ######                       \n #     # #  ####  #     # ###### #####  #    # \n #     # # #    # #     # #      #    # ##  ## \n ######  # #      ######  #####  #    # # ## # \n #     # # #  ### #       #      #####  #    # \n #     # # #    # #       #      #   #  #    # \n ######  #  ####  #       ###### #    # #    # \n\n PLOT\n\n The crew of the ship Serenity tries to evade an assassin sent to\n recapture one of their number who is telepathic.\n\n Runtime ..........: 1h 58mn\n File Size ........: 1.28 GiB\n Resolution .......: 704x396\n IMDb URL .........: http://www.imdb.com/title/tt0379786/\n Language .........: English\n Video\n ID : 0\n Format : MPEG-4 Visual\n Format profile : Advanced Simple@L5\n Format settings, BVOP : Yes\n Format settings, QPel : No\n Format settings, GMC : No warppoints\n Format settings, Matrix : Default (H.263)\n Codec ID : XVID\n Codec ID/Hint : XviD\n Duration : 1h 58mn\n Bit rate : 43.4 Kbps\n Width : 704 pixels\n Height : 396 pixels\n Display aspect ratio : 16:9\n Frame rate : 29.970 fps\n Color space : YUV\n Chroma subsampling : 4:2:0\n Bit depth : 8 bits\n Scan type : Progressive\n Compression mode : Lossy\n Bits/(Pixel*Frame) : 0.005\n Stream size : 36.9 MiB (3%)\n Writing library : XviD 1.2.1 (UTC 2008-12-04)\n\n Audio\n ID : 1\n Format : AC-3\n Format/Info : Audio Coding 3\n Codec ID : 2000\n Duration : 1h 58mn\n Bit rate mode : Constant\n Bit rate : 448 Kbps\n Channel(s) : 6 channels\n Sampling rate : 48.0 KHz\n Bit depth : 16 bits\n Compression mode : Lossy\n Stream size : 381 MiB (29%)\n Alignment : Aligned on interleaves\n\n &lt;a href=&quot; http://www.imdb.com/title/tt0379786/&quot; rel=&quot;nofollow&quot; target=&quot;_NEW&quot;&gt; http://www.imdb.com/title/tt0379786/&lt;/a&gt;\n\n\n Screen SHots:\n\n &lt;a href=&quot; http://leetleech.org/images/73184023072357453816.png&quot; rel=&quot;nofollow&quot; target=&quot;_NEW&quot;&gt; http://leetleech.org/images/73184023072357453816.png&lt;/a&gt;\n\n &lt;a href=&quot; http://leetleech.org/images/60861048463529679213.png&quot; rel=&quot;nofollow&quot; target=&quot;_NEW&quot;&gt; http://leetleech.org/images/60861048463529679213.png&lt;/a&gt;\n\n &lt;a href=&quot; http://leetleech.org/images/81130351713120843145.png&quot; rel=&quot;nofollow&quot; target=&quot;_NEW&quot;&gt; http://leetleech.org/images/81130351713120843145.png&lt;/a&gt;\n\n &lt;a href=&quot; http://leetleech.org/images/54892404873792633417.png&quot; rel=&quot;nofollow&quot; target=&quot;_NEW&quot;&gt; http://leetleech.org/images/54892404873792633417.png&lt;/a&gt;\n\n ######           ######                       \n #     # #  ####  #     # ###### #####  #    # \n #     # # #    # #     # #      #    # ##  ## \n ######  # #      ######  #####  #    # # ## # \n #     # # #  ### #       #      #####  #    # \n #     # # #    # #       #      #   #  #    # \n ######  #  ####  #       ###### #    # #    # ","torrent":{"xt":"urn:btih:a6cd2a209b9646d316edfa64ddf4001ce38c4a5a","amp;dn":"Serenity+2005+DVDRip+Xvid+BigPerm+LKRG","amp;tr":["udp%3A%2F%2Ftracker.openbittorrent.com%3A80","udp%3A%2F%2Fopen.demonii.com%3A1337","udp%3A%2F%2Ftracker.coppersurfer.tk%3A6969","udp%3A%2F%2Fexodus.desync.com%3A6969"],"infoHash":"a6cd2a209b9646d316edfa64ddf4001ce38c4a5a","infoHashBuffer":{"type":"Buffer","data":[166,205,42,32,155,150,70,211,22,237,250,100,221,244,0,28,227,140,74,90]},"announce":[],"urlList":[]}}